<svg width="355" height="72" viewBox="0 0 355 72" fill="none" xmlns="http://www.w3.org/2000/svg">
<path d="M38.5943 23.5623L31.3964 17.3046C30.6423 16.6924 29.6826 16.2843 28.7229 16.2843H9.87136C8.91164 16.2843 7.95193 16.6924 7.26642 17.3726L0.822614 23.6983C0.274205 24.2424 0 24.9226 0 25.6708V43.4236C0 44.2398 0.479857 44.988 1.23392 45.3961L22.759 55.6669C23.0332 55.8029 23.3759 55.871 23.6501 55.871H30.9165C31.3964 55.871 31.7392 56.2111 31.7392 56.6872V63.0129C31.7392 63.489 31.3964 63.8291 30.9165 63.8291H0.0685514V71.6512H14.3272C15.4926 71.6512 16.5894 71.3791 17.6862 70.971L34.6183 63.421C35.0296 63.285 35.4409 63.0809 35.7837 62.8768C38.2515 61.5165 39.8967 58.9318 39.8967 55.939V26.0109C39.7596 25.0587 39.3483 24.1744 38.5943 23.5623ZM31.6021 46.4844C31.6021 47.2326 30.9851 47.9128 30.1625 47.9128H9.5286C8.77454 47.9128 8.08903 47.3007 8.08903 46.4844V25.8069C8.08903 25.0587 8.70599 24.3785 9.5286 24.3785H30.231C30.9851 24.3785 31.6706 24.9906 31.6706 25.8069V46.4844H31.6021Z" fill="#103CF5"/>
<path d="M346.897 0V15.2054C346.897 15.4782 346.623 15.7509 346.348 15.7509H338.794C338.451 15.7509 338.176 15.8191 337.902 15.9555L316.34 26.2516C315.584 26.5925 315.104 27.4107 315.104 28.2289V46.1618C315.104 46.8437 315.378 47.4574 315.859 47.9347L322.52 54.4123C323.138 55.026 324.03 55.3669 324.923 55.3669L355 55.2305V15.6827V0H346.897ZM346.897 46.0936C346.897 46.7073 346.417 47.1846 345.799 47.1846H324.511C323.893 47.1846 323.412 46.7073 323.412 46.0936V24.8197C323.412 24.206 323.893 23.7287 324.511 23.7287H345.799C346.417 23.7287 346.897 24.206 346.897 24.8197V46.0936Z" fill="#103CF5"/>
<path d="M83.4455 26.6256L61.9205 16.4856C61.6463 16.3513 61.3035 16.2842 61.0293 16.2842H44.7827V24.141H45.4682H47.1135H75.3565C75.9735 24.141 76.4533 24.611 76.4533 25.2154V30.6547C76.4533 31.2591 75.9735 31.7292 75.3565 31.7292H68.7756C68.0901 31.7292 67.5417 32.0649 67.336 32.1321C67.1304 32.1992 52.3233 38.9144 49.924 40.056C47.4562 41.1976 44.8513 43.0779 44.8513 44.5552C44.8513 45.361 44.8513 46.4355 44.8513 46.4355C46.6336 50.1288 52.2548 55.2995 53.8315 55.2995C54.9968 55.2995 74.8766 55.3667 74.8766 55.3667C75.7678 55.3667 76.659 55.0309 77.2759 54.4266L83.9254 48.0471C84.4052 47.5771 84.6795 46.9727 84.6795 46.3012V28.573C84.6109 27.7 84.1996 26.9614 83.4455 26.6256ZM76.4533 46.1669C76.4533 46.7712 75.9735 47.2413 75.3565 47.2413H54.1057C53.4887 47.2413 53.0088 46.7712 53.0088 46.1669V40.929C53.0088 40.3246 53.4887 39.8546 54.1057 39.8546H75.3565C75.9735 39.8546 76.4533 40.3246 76.4533 40.929V46.1669Z" fill="#103CF5"/>
<path d="M143.67 39.9624H150.251C150.936 39.9624 151.484 39.6261 151.69 39.5588C151.896 39.4915 166.703 32.7648 169.102 31.6212C171.57 30.4777 174.175 28.5942 174.175 27.1143C174.175 26.3071 174.175 25.2308 174.175 25.2308C172.393 21.5311 166.771 16.3514 165.195 16.3514C164.029 16.3514 144.149 16.2842 144.149 16.2842C143.258 16.2842 142.367 16.6205 141.75 17.2259L135.101 23.6164C134.621 24.0872 134.347 24.6926 134.347 25.3653V43.0567C134.347 43.8639 134.827 44.6039 135.581 45.0075L157.106 55.1649C157.38 55.2994 157.723 55.3667 157.997 55.3667H174.243V47.6309H173.558H171.913H143.67C143.053 47.6309 142.573 47.16 142.573 46.5546V41.106C142.573 40.5005 143.053 39.9624 143.67 39.9624ZM142.573 25.4999C142.573 24.8944 143.053 24.4236 143.67 24.4236H164.92C165.537 24.4236 166.017 24.8944 166.017 25.4999V30.7467C166.017 31.3521 165.537 31.823 164.92 31.823H143.67C143.053 31.823 142.573 31.3521 142.573 30.7467V25.4999Z" fill="#103CF5"/>
<path d="M213.382 33.1704C212.77 32.5776 211.887 32.2482 211.003 32.2482H190.001C189.39 32.2482 188.982 31.7872 188.982 31.1944V30.7333V28.428V26.1227V25.5299C188.982 25.0688 189.322 24.7395 189.797 24.7395H220.383V17.099H206.246C205.09 17.099 204.003 17.3625 202.915 17.7577C202.915 17.7577 185.244 25.464 184.972 25.5957C184.972 25.5957 184.768 25.7275 184.632 25.7933C182.593 26.8472 180.758 28.3621 180.758 29.5477C180.758 30.3381 180.758 30.9968 180.758 31.392C180.894 32.7752 188.098 40.0863 189.662 40.0863C190.817 40.0863 211.479 40.1522 211.479 40.1522C212.091 40.1522 212.566 40.6133 212.566 41.2061V42.194V46.4095C212.566 47.0023 212.091 47.4633 211.479 47.4633H181.166V55.2356L210.935 55.3673C211.819 55.3673 212.702 55.038 213.314 54.4452L219.907 48.1879C220.383 47.7268 220.655 47.134 220.655 46.4754V45.4874V42.3258V41.3378C220.655 40.6791 220.383 40.0863 219.907 39.6253L213.382 33.1704Z" fill="#103CF5"/>
<path d="M257.197 46.5698C257.197 47.107 256.788 47.5099 256.244 47.5099H248.686H239.427H234.593C234.048 47.5099 233.64 47.107 233.64 46.5698V16.3513H225.538V30.9905C225.538 31.9306 225.742 32.9379 226.151 33.8109L232.755 47.5771L233.64 49.4573L235.478 52.9492C235.546 53.0164 235.546 53.0835 235.614 53.1507C236.568 54.2923 237.997 55.0981 239.495 55.2995V55.3667H240.312H248.823H250.729C252.499 55.3667 254.269 54.5609 255.359 53.2178C255.427 53.1507 255.427 53.0835 255.495 53.0164L257.333 49.5245L264.822 33.9452C265.231 33.0722 265.435 32.1321 265.435 31.1248V16.2842H257.333V46.5698H257.197Z" fill="#103CF5"/>
<path d="M295.025 47.4091C294.823 47.4091 294.554 47.3416 294.554 46.8015V25.7397C294.554 24.7947 294.15 23.8496 293.409 23.242L286.945 17.099C286.204 16.4915 285.262 16.0864 284.319 16.0864H270.65V24.1196H285.06C285.8 24.1196 286.474 24.7272 286.474 25.5372V46.8015V47.0041C286.474 47.2066 286.474 47.3416 286.002 47.4091H270.65V55.3748H309.973V47.4091H295.025Z" fill="#103CF5"/>
<path d="M294.487 0.608521H286.474V8.64171H294.487V0.608521Z" fill="#103CF5"/>
<path d="M116.3 17.3551C115.542 18.1581 110.994 23.2442 110.649 23.5119C110.305 23.7796 110.236 24.0473 109.96 24.0473H108.927C108.651 24.0473 108.238 23.6457 108.1 23.445C107.893 23.2442 102.932 17.6897 102.518 17.3551C102.105 16.9535 101.14 16.3512 99.9688 16.3512H97.4882H89.564V55.2999H97.4882V24.9842C97.4882 24.1142 97.8327 24.0473 98.1773 24.0473H104.31C104.792 24.0473 105.481 24.1142 105.481 24.9173V55.2999H113.612V25.118C113.612 24.7165 113.612 24.1142 114.37 24.1142H120.365C120.985 24.1142 121.468 24.4488 121.468 25.118V55.3668H129.461V16.2843H118.987C117.678 16.2843 117.058 16.552 116.3 17.3551Z" fill="#103CF5"/>
</svg>
