<svg width="589" height="362" viewBox="0 0 589 362" fill="none" xmlns="http://www.w3.org/2000/svg">
<path fill-rule="evenodd" clip-rule="evenodd" d="M64.3163 0.5C51.6508 18.0688 37.1872 38.6258 24.0036 57.517C10.8199 76.4084 0.0184921 93.1723 0.000106313 94.7706C-0.0180033 96.3689 2.27985 101.051 5.10675 105.175C7.93366 109.3 19.8648 126.231 31.6209 142.8C43.3768 159.369 54.0155 174.516 55.2625 176.461C57.5255 179.991 57.4801 180.07 30.5311 219.739C15.6817 241.597 2.67824 261.195 1.63434 263.289C-0.108547 266.787 0.0533171 267.64 3.62076 273.746C5.75727 277.402 19.1413 297.019 33.3635 317.337C47.5855 337.656 59.0367 355.399 64.3163 361.15C70.0985 361.15 87.6834 361.15 209.012 361.5L527.011 361.15L555.508 320.62C571.18 298.328 585.321 277.49 586.931 274.312C589.859 268.535 589.859 268.535 585.772 261.947C583.525 258.324 570.708 239.727 557.292 220.621C543.875 201.515 532.594 184.719 532.223 183.297C531.761 181.526 538.19 171.259 552.624 150.714C564.216 134.215 576.868 116.08 580.74 110.412C584.613 104.745 588.131 98.8715 588.559 97.3603C588.987 95.8489 588.499 92.9944 587.475 91.0166C586.45 89.0391 572.506 68.6365 556.488 45.6777C540.47 22.719 526.396 3.16203 525.213 2.21725C523.523 0.868362 317.181 0.5 205.942 0.5H64.3163ZM253.689 85.6822C219.039 35.5912 208.773 20.444 208.522 19.7048C208.228 18.841 231.774 18.3606 274.427 18.3606H516.282L531.241 39.908C539.468 51.7592 549.746 66.6447 554.08 72.987C558.415 79.3296 561.961 84.7805 561.961 85.1005C561.961 85.4203 532.086 85.6822 495.572 85.6822H253.689ZM561.961 257.611C561.961 258.262 532.376 258.794 496.217 258.794C430.473 258.794 264.337 258.794 253.689 258.794C250.778 254.827 236.604 233.203 227.085 219.557C217.567 205.91 209.379 193.7 208.89 192.422C208.062 190.26 212.556 190.1 273.592 190.12C309.667 190.132 515.34 190.595 516.15 191.15C516.961 191.706 524.67 202.316 533.282 214.73C541.894 227.144 551.87 241.604 555.451 246.864C559.031 252.123 561.961 256.96 561.961 257.611ZM237.93 95.3029C237.699 96.4384 228.057 110.658 216.505 126.903C204.952 143.147 192.157 161.334 188.07 167.318C182.594 175.336 180.779 179.155 181.172 181.837C181.465 183.838 194.295 203.319 209.684 225.128C225.072 246.936 237.663 265.787 237.663 267.02C237.663 268.252 228.125 282.809 216.468 299.369C204.811 315.929 193.884 331.04 192.186 332.949C189.1 336.42 189.1 336.42 186.019 332.409C184.324 330.203 173.547 315.056 162.069 298.748C150.591 282.441 139.301 266.78 136.979 263.946C133.846 260.123 131.719 258.794 128.733 258.794C125.323 258.794 123.593 260.315 117.399 268.755C113.379 274.233 102.132 290.128 92.407 304.076C82.6815 318.025 73.3297 331.008 71.6249 332.929C68.5256 336.42 68.5256 336.42 65.7781 332.985C64.2667 331.096 53.4667 315.843 41.7779 299.089C30.0892 282.336 20.5256 267.898 20.5256 267.006C20.5256 266.114 26.994 255.858 34.8994 244.216C42.8051 232.575 55.2945 214.244 62.6536 203.483C72.269 189.422 76.0337 182.757 76.0337 179.795C76.0337 176.652 69.4029 166.225 48.1143 135.89C24.4975 102.239 20.3788 95.6503 21.3881 93.1391C22.0445 91.5062 32.7579 75.5734 45.1957 57.7326C57.6339 39.8918 68.186 25.2805 68.6456 25.2626C69.105 25.2447 81.6362 42.5404 96.4929 63.697C117.123 93.0757 124.343 102.374 127.05 103.056C129 103.546 131.579 103.345 132.782 102.61C133.984 101.874 139.69 94.6321 145.462 86.5164C151.233 78.4007 163.26 61.3151 172.188 48.5481C181.116 35.7814 188.893 25.4701 189.471 25.6343C190.05 25.7985 201.284 41.0767 214.437 59.5858C227.59 78.0949 238.162 94.1677 237.93 95.3029ZM171.447 18.3606C154.393 43.383 145.26 56.4789 140.149 63.6063C135.038 70.7336 130.191 76.7779 129.377 77.0382C128.563 77.2985 123.591 71.4672 118.329 64.0796C113.066 56.692 104.018 43.7594 98.2221 35.3404C92.4259 26.9215 87.6834 19.6567 87.6834 19.1971C87.6834 18.7371 106.53 18.3606 129.565 18.3606H171.447Z" fill="#EF3F56"/>
</svg>
