<svg width="256" height="255" viewBox="0 0 256 255" fill="none" xmlns="http://www.w3.org/2000/svg">
<path id="Shape" fill-rule="evenodd" clip-rule="evenodd" d="M57.9768 150.189C57.4191 148.663 56.936 147.285 56.5435 146.142C56.1509 144.999 55.7008 143.561 55.5432 142.945C55.3856 142.33 55.1389 141.298 54.995 140.651C54.8511 140.005 54.6118 138.734 54.4633 137.827C54.3148 136.921 54.1217 135.556 54.0342 134.794C53.9466 134.032 53.8159 132.497 53.7437 131.384C53.6565 130.04 53.6361 128.302 53.6832 126.216C53.7222 124.487 53.8008 122.497 53.8579 121.794C53.915 121.091 54.0375 119.892 54.13 119.13C54.2225 118.368 54.3726 117.251 54.4636 116.648C54.5545 116.045 54.602 115.482 54.569 115.396C54.517 115.261 52.6674 115.241 40.4067 115.241C32.3753 115.241 25.4823 115.195 24.3949 115.134C23.3448 115.076 21.9083 114.951 21.2027 114.856C20.4972 114.761 19.3667 114.543 18.6906 114.372C18.0144 114.2 16.9801 113.887 16.3922 113.677C15.8042 113.467 14.6497 112.96 13.8265 112.551C13.0034 112.142 11.8729 111.51 11.3144 111.146C10.7558 110.782 9.88991 110.159 9.39014 109.761C8.89037 109.363 8.00758 108.575 7.42835 108.01C6.84912 107.445 6.02532 106.551 5.59768 106.024C5.17003 105.496 4.50369 104.594 4.1169 104.019C3.73013 103.444 3.11727 102.394 2.75501 101.685C2.39275 100.977 1.88411 99.8413 1.6247 99.1614C1.36529 98.4816 1.0365 97.4937 0.894035 96.9663C0.751587 96.4388 0.537967 95.4873 0.419321 94.8517C0.300676 94.2161 0.145935 92.9845 0.0754678 92.1148C-0.0231079 90.8981 -0.0238518 90.162 0.0722315 88.9219C0.140924 88.0355 0.297792 86.7497 0.420848 86.0645C0.543892 85.3794 0.807308 84.2553 1.0062 83.5665C1.2051 82.8777 1.53767 81.9051 1.74528 81.4052C1.95287 80.9053 2.40584 79.9345 2.75189 79.2478C3.09792 78.5611 3.66602 77.5677 4.01432 77.0402C4.36261 76.5128 4.97424 75.6737 5.37349 75.1755C5.77274 74.6773 6.49104 73.869 6.96973 73.3792C7.44842 72.8895 8.24144 72.1354 8.73198 71.7035C9.22252 71.2717 10.1912 70.5351 10.8846 70.0666C11.578 69.5982 12.6469 68.9503 13.26 68.6268C13.8732 68.3034 14.8287 67.8536 15.3835 67.6274C15.9383 67.4011 16.6207 67.1329 16.9 67.0312C17.3809 66.8562 17.4077 66.8257 17.4077 66.4519C17.4077 66.2349 17.3146 65.5316 17.2007 64.889C17.0868 64.2465 16.9196 63.1693 16.829 62.4953C16.7384 61.8213 16.6095 60.4068 16.5424 59.3519C16.4405 57.7474 16.449 57.042 16.5949 55.0364C16.6907 53.7177 16.8658 52.0459 16.9839 51.3211C17.1019 50.5963 17.3175 49.4549 17.4629 48.7847C17.6083 48.1144 17.8956 46.9705 18.1013 46.2426C18.3071 45.5147 18.722 44.2586 19.0233 43.4512C19.3246 42.6438 19.7747 41.5214 20.0235 40.9569C20.2723 40.3925 20.8263 39.2656 21.2545 38.4528C21.6828 37.64 22.3196 36.5195 22.6697 35.9628C23.0197 35.406 23.6426 34.4804 24.0539 33.9059C24.4652 33.3314 25.1737 32.3964 25.6284 31.8281C26.083 31.2598 26.9865 30.2194 27.6361 29.5161C28.2857 28.8128 29.377 27.7384 30.0612 27.1284C30.7454 26.5184 31.7501 25.664 32.2939 25.2296C32.8377 24.7952 34.1004 23.894 35.0999 23.2268C36.1044 22.5562 37.7778 21.5725 38.8414 21.0271C39.8998 20.4845 41.257 19.838 41.8574 19.5903C42.4579 19.3426 43.42 18.9721 43.9955 18.767C44.5709 18.5618 45.6066 18.2241 46.2971 18.0166C46.9875 17.8091 48.3826 17.4732 49.3972 17.2702C50.4118 17.0672 51.82 16.8264 52.5263 16.7351C53.2328 16.6437 54.6038 16.5241 55.573 16.4692C56.6499 16.4082 58.129 16.407 59.3759 16.4662C60.4982 16.5194 62.0244 16.6377 62.7674 16.729C63.5103 16.8202 64.6396 16.9885 65.2769 17.1029C65.9142 17.2173 67.1195 17.4822 67.9554 17.6916C68.7914 17.901 70.0872 18.2784 70.835 18.5302C71.5828 18.782 72.7809 19.2297 73.4974 19.5252C74.214 19.8206 75.6491 20.4983 76.6866 21.031C77.7241 21.5638 79.1821 22.3962 79.9265 22.8809C80.6709 23.3655 81.8497 24.1845 82.5458 24.7007C83.2421 25.217 84.2285 26.0034 84.7379 26.4483C85.2474 26.8933 86.0646 27.6456 86.554 28.1203C87.0435 28.595 87.9143 29.5108 88.4893 30.1554C89.0643 30.8001 89.9096 31.8071 90.3679 32.3931C90.8261 32.9792 91.5757 34.0162 92.0337 34.6975C92.4917 35.3788 93.1415 36.4272 93.4777 37.0271C94.089 38.1179 94.089 38.1179 94.5268 38.062C94.7676 38.0312 95.5419 37.8865 96.2474 37.7403C96.953 37.5942 98.0303 37.396 98.6415 37.3001C99.2526 37.2041 100.456 37.0836 101.316 37.0323C102.209 36.979 103.662 36.979 104.706 37.0323C105.711 37.0836 107.201 37.2231 108.018 37.3423C108.835 37.4614 110.104 37.7044 110.839 37.8821C111.574 38.0599 112.693 38.3741 113.326 38.5804C113.958 38.7867 114.993 39.1627 115.624 39.4158C116.256 39.669 117.32 40.1499 117.989 40.4846C118.658 40.8192 119.716 41.4072 120.341 41.7913C120.965 42.1753 121.885 42.7799 122.385 43.1349C122.885 43.4898 123.823 44.2206 124.469 44.7589C125.116 45.2971 126.202 46.3073 126.881 47.0037C127.561 47.7002 128.52 48.7735 129.012 49.3889C129.504 50.0042 130.279 51.0831 130.735 51.7864C131.19 52.4897 131.65 53.1736 131.758 53.3062C131.93 53.5199 132.099 53.5591 133.235 53.65C133.941 53.7064 134.999 53.802 135.587 53.8624C136.175 53.9228 137.498 54.0932 138.527 54.241C139.556 54.3887 141.264 54.6803 142.322 54.8889C143.38 55.0975 144.92 55.428 145.743 55.6233C146.566 55.8186 147.889 56.1679 148.682 56.3995C149.476 56.6311 150.383 56.8975 150.698 56.9915C151.269 57.1623 151.269 57.1623 153.643 54.8473C154.948 53.574 160.048 48.5221 164.976 43.6208C169.904 38.7194 179.932 28.7401 187.26 21.4445C194.588 14.1488 200.92 7.90572 201.331 7.57089C201.743 7.23605 202.585 6.59697 203.202 6.15074C203.819 5.70451 204.822 5.04064 205.431 4.67547C206.039 4.3103 207.091 3.73868 207.769 3.40522C208.446 3.07177 209.457 2.61386 210.015 2.38766C210.572 2.16146 211.541 1.80371 212.167 1.59262C212.792 1.38154 213.809 1.08926 214.427 0.943138C215.044 0.796987 216.039 0.587257 216.637 0.477084C217.236 0.366886 218.342 0.214465 219.096 0.138372C219.85 0.0622533 221.333 0 222.391 0C223.449 0 224.98 0.0611346 225.792 0.135875C226.605 0.210589 227.904 0.389727 228.679 0.533952C229.454 0.678178 230.617 0.935958 231.264 1.10682C231.91 1.27769 233.065 1.64187 233.829 1.91614C234.594 2.19039 235.965 2.77255 236.876 3.20983C237.787 3.64711 238.99 4.27451 239.549 4.60404C240.107 4.93359 241.045 5.54096 241.633 5.95378C242.221 6.36659 243.063 6.99198 243.504 7.34352C243.945 7.69505 244.691 8.32737 245.161 8.74868C245.631 9.16996 246.521 10.076 247.139 10.7622C247.756 11.4483 248.615 12.4722 249.048 13.0375C249.481 13.6029 250.185 14.5929 250.613 15.2376C251.04 15.8822 251.706 17.0095 252.093 17.7426C252.48 18.4757 253.018 19.6025 253.289 20.2466C253.56 20.8908 253.949 21.8973 254.154 22.4834C254.359 23.0695 254.666 24.1004 254.836 24.7744C255.006 25.4483 255.242 26.511 255.361 27.1359C255.481 27.7608 255.639 28.9355 255.715 29.7465C255.79 30.5575 255.851 32.156 255.851 33.2989C255.851 34.4417 255.789 35.9915 255.712 36.7429C255.636 37.4943 255.483 38.5971 255.373 39.1937C255.263 39.7902 255.027 40.8562 254.848 41.5625C254.669 42.2688 254.356 43.3238 254.152 43.9068C253.948 44.4898 253.56 45.4921 253.29 46.1341C253.02 46.7761 252.52 47.8313 252.179 48.4791C251.837 49.1268 251.256 50.1359 250.886 50.7215C250.517 51.3072 249.745 52.4098 249.171 53.1716C248.598 53.9335 247.413 55.3164 246.538 56.2448C245.663 57.1732 234.556 68.2845 221.856 80.9366C209.157 93.5887 198.71 104.026 198.642 104.13C198.542 104.282 198.621 104.672 199.046 106.13C199.336 107.126 199.785 108.805 200.044 109.86C200.303 110.915 200.665 112.558 200.847 113.512C201.03 114.465 201.318 116.216 201.486 117.401C201.655 118.586 201.853 120.323 201.925 121.261C201.997 122.199 202.11 123.024 202.175 123.095C202.262 123.189 203.328 123.231 206.232 123.254C210.156 123.286 210.17 123.286 210.362 123.523C210.54 123.741 210.559 124.135 210.604 128.478C210.652 133.099 210.658 133.213 210.913 134.049C211.056 134.519 211.35 135.219 211.567 135.605C211.783 135.99 212.147 136.531 212.375 136.807C212.603 137.082 213.07 137.543 213.412 137.831C213.753 138.119 214.35 138.52 214.738 138.722C215.125 138.923 215.779 139.193 216.191 139.321C216.705 139.48 217.345 139.572 218.24 139.613C219.339 139.663 219.695 139.637 220.538 139.442C221.168 139.296 221.812 139.058 222.284 138.795C222.696 138.567 223.313 138.148 223.656 137.865C223.999 137.583 225.573 136.058 227.154 134.478C229.061 132.572 230.102 131.605 230.249 131.605C230.399 131.605 233.221 134.348 239.041 140.148C244.861 145.95 247.612 148.763 247.612 148.912C247.612 149.058 246.592 150.146 244.569 152.157C242.896 153.821 241.346 155.414 241.125 155.697C240.904 155.98 240.533 156.595 240.301 157.064C240.039 157.592 239.81 158.269 239.698 158.841C239.564 159.529 239.533 160.075 239.577 160.973C239.622 161.871 239.705 162.375 239.905 162.947C240.053 163.369 240.297 163.958 240.447 164.256C240.597 164.554 240.86 164.999 241.031 165.246C241.202 165.493 241.649 165.989 242.025 166.347C242.401 166.706 242.995 167.182 243.345 167.406C243.696 167.629 244.32 167.93 244.732 168.075C245.422 168.316 245.704 168.344 248.261 168.422C249.79 168.468 252.063 168.509 253.312 168.513C255.444 168.518 255.597 168.532 255.8 168.734C256.014 168.948 256.016 169.031 255.987 180.997C255.959 192.563 255.95 193.05 255.761 193.188C255.604 193.302 254.561 193.339 250.683 193.369C245.802 193.408 245.802 193.408 244.971 193.686C244.514 193.84 243.799 194.166 243.384 194.412C242.969 194.658 242.327 195.155 241.959 195.515C241.591 195.875 241.113 196.446 240.897 196.783C240.681 197.12 240.358 197.76 240.179 198.205C240 198.651 239.797 199.286 239.728 199.618C239.659 199.949 239.602 200.819 239.602 201.551C239.602 202.723 239.638 202.992 239.901 203.789C240.066 204.287 240.398 205.03 240.639 205.441C240.982 206.023 241.784 206.895 244.296 209.415C246.919 212.048 247.513 212.697 247.513 212.932C247.513 213.171 246.069 214.653 238.932 221.744C233.895 226.748 230.279 230.261 230.176 230.251C230.079 230.241 228.737 228.97 227.193 227.427C225.65 225.884 224.058 224.342 223.658 224.001C223.257 223.66 222.543 223.193 222.072 222.963C221.601 222.733 220.928 222.473 220.578 222.384C220.183 222.285 219.448 222.223 218.647 222.223C217.681 222.223 217.139 222.279 216.505 222.445C216.038 222.566 215.319 222.842 214.908 223.057C214.496 223.272 213.895 223.657 213.572 223.912C213.248 224.167 212.823 224.55 212.628 224.764C212.432 224.978 212.065 225.465 211.813 225.846C211.56 226.227 211.233 226.874 211.085 227.285C210.937 227.695 210.763 228.375 210.697 228.797C210.624 229.266 210.578 231.239 210.578 233.885C210.578 238.065 210.571 238.214 210.365 238.42C210.153 238.63 210.008 238.633 198.124 238.633C186.24 238.633 186.095 238.63 185.884 238.42C185.679 238.215 185.67 238.063 185.668 234.451C185.667 232.385 185.62 230.119 185.565 229.416C185.51 228.713 185.376 227.872 185.269 227.547C185.161 227.222 184.887 226.623 184.66 226.215C184.399 225.747 183.907 225.134 183.328 224.557C182.723 223.953 182.146 223.496 181.638 223.218C181.214 222.986 180.493 222.679 180.036 222.536C179.305 222.308 179.005 222.277 177.547 222.277C176.033 222.277 175.816 222.301 175.056 222.559C174.598 222.715 173.954 223.003 173.626 223.199C173.297 223.395 172.614 223.944 172.107 224.419C171.6 224.895 170.046 226.423 168.653 227.816C166.674 229.796 166.079 230.334 165.927 230.279C165.821 230.241 164.747 229.216 163.542 228.001C162.336 226.787 161.297 225.779 161.232 225.761C161.156 225.741 161.069 226.181 160.986 227.006C160.916 227.708 160.742 228.713 160.601 229.24C160.459 229.767 160.227 230.482 160.086 230.83C159.944 231.178 159.632 231.797 159.393 232.205C159.154 232.613 158.742 233.231 158.478 233.579C158.214 233.926 157.694 234.506 157.322 234.867C156.951 235.227 156.316 235.769 155.912 236.071C155.508 236.373 154.714 236.85 154.148 237.133C153.582 237.415 152.821 237.754 152.457 237.885C151.801 238.122 151.793 238.13 151.497 238.831C151.332 239.22 150.8 240.33 150.313 241.297C149.752 242.413 149.068 243.561 148.441 244.44C147.749 245.41 146.973 246.308 145.85 247.437C144.797 248.496 143.787 249.387 142.91 250.031C142.175 250.57 141.117 251.269 140.558 251.584C139.999 251.899 139.037 252.393 138.42 252.683C137.803 252.972 136.869 253.359 136.346 253.542C135.823 253.726 134.854 254.016 134.194 254.187C133.533 254.358 132.494 254.57 131.885 254.658C131.275 254.747 130.103 254.871 129.28 254.935C127.977 255.037 127.514 255.024 125.699 254.836C124.552 254.718 123.061 254.495 122.385 254.342C121.709 254.188 120.578 253.874 119.873 253.645C119.167 253.415 117.847 252.862 116.94 252.416C116.032 251.969 114.775 251.257 114.145 250.833C113.515 250.408 112.646 249.781 112.213 249.438C111.781 249.095 110.976 248.382 110.425 247.853C109.874 247.324 109.016 246.388 108.519 245.772C108.021 245.157 107.327 244.222 106.977 243.694C106.626 243.167 105.969 241.989 105.516 241.078C105.063 240.166 104.548 239.115 104.372 238.742C104.051 238.064 104.051 238.064 103.249 237.778C102.808 237.621 102.111 237.323 101.699 237.116C101.288 236.908 100.566 236.465 100.096 236.131C99.6255 235.797 98.9822 235.276 98.6664 234.974C98.3505 234.671 97.8094 234.048 97.464 233.589C97.1185 233.13 96.67 232.459 96.4674 232.097C96.2648 231.736 95.9321 231.009 95.728 230.481C95.524 229.954 95.2568 228.995 95.1343 228.35C95.0117 227.706 94.9114 226.753 94.9113 226.232C94.9112 225.712 94.9897 224.825 95.0857 224.261C95.1816 223.697 95.3736 222.888 95.5124 222.462C95.6511 222.037 95.9638 221.294 96.2073 220.812C96.4508 220.329 96.8961 219.58 97.197 219.147C97.4979 218.714 97.8104 218.269 97.8914 218.159C98.0206 217.984 98.0073 217.914 97.7845 217.599C97.6447 217.401 97.3323 216.958 97.0904 216.614C96.8485 216.271 96.4816 215.654 96.275 215.244C96.0685 214.834 95.7537 214.066 95.5754 213.539C95.3972 213.011 95.1688 212.111 95.0679 211.537C94.9314 210.761 94.9008 210.189 94.948 209.3C94.9829 208.642 95.0431 207.944 95.0819 207.748C95.138 207.464 95.1199 207.399 94.9929 207.428C94.9053 207.449 88.9354 213.351 81.7266 220.544C69.0458 233.198 68.5944 233.635 67.8416 233.994C67.4136 234.198 65.2113 235.067 62.9477 235.926C60.684 236.784 57.665 237.935 56.2387 238.483C54.8124 239.032 50.7475 240.59 47.2056 241.947C43.6636 243.303 39.7905 244.788 38.5987 245.247C37.4069 245.705 35.4105 246.474 34.1623 246.954C32.9141 247.435 31.2434 248.079 30.4497 248.386C29.6559 248.693 27.7923 249.407 26.3082 249.972C24.8242 250.536 22.4793 251.43 21.0974 251.957C19.7155 252.484 17.7067 253.252 16.6333 253.665C15.56 254.078 14.1766 254.534 13.5593 254.677C12.9419 254.821 12.0039 254.961 11.4747 254.988C10.74 255.026 10.2094 254.978 9.22979 254.786C8.52424 254.648 7.56213 254.386 7.09176 254.204C6.6214 254.023 5.87576 253.663 5.43479 253.404C4.99383 253.145 4.26726 252.622 3.82021 252.24C3.37315 251.859 2.70381 251.146 2.3328 250.657C1.96179 250.168 1.4284 249.289 1.14749 248.703C0.866592 248.116 0.538868 247.282 0.41923 246.849C0.299592 246.416 0.144265 245.569 0.0740453 244.966C-0.0232254 244.132 -0.0244129 243.635 0.0690213 242.877C0.136474 242.33 0.285003 241.523 0.399108 241.084C0.513199 240.644 1.14502 238.894 1.80314 237.194C2.46128 235.495 3.42875 232.99 3.95309 231.628C4.47743 230.266 5.30803 228.108 5.79887 226.833C6.2897 225.558 7.15221 223.327 7.71553 221.875C8.27886 220.424 9.48833 217.295 10.4032 214.923C11.3181 212.551 12.4741 209.555 12.972 208.265C13.47 206.975 14.3056 204.805 14.8289 203.442C15.3522 202.08 16.2406 199.778 16.8031 198.326C17.3656 196.875 18.5007 193.926 19.3256 191.773C20.1505 189.62 20.9824 187.554 21.1744 187.182C21.4848 186.58 23.5409 184.496 39.7501 168.347L57.9768 150.189ZM11.3144 246.585C11.8377 246.557 12.3918 246.404 13.5593 245.962C14.4118 245.639 16.5766 244.812 18.3698 244.123C20.1631 243.434 21.8588 242.774 22.1381 242.657C22.4174 242.539 22.6459 242.388 22.6459 242.322C22.6459 242.255 20.4536 240.02 17.7741 237.353C15.0946 234.687 12.8218 232.506 12.7236 232.506C12.6046 232.506 12.4659 232.711 12.3085 233.12C12.1785 233.458 11.8078 234.417 11.4848 235.252C11.1618 236.086 10.5531 237.655 10.1323 238.74C9.71145 239.824 9.15581 241.3 8.89758 242.021C8.54943 242.993 8.42803 243.49 8.42803 243.945C8.42803 244.391 8.50343 244.709 8.70493 245.112C8.85723 245.417 9.1561 245.809 9.36908 245.984C9.58207 246.159 9.95055 246.374 10.1879 246.462C10.46 246.562 10.8764 246.607 11.3144 246.585ZM128.692 246.552C129.427 246.527 130.461 246.439 130.99 246.356C131.52 246.273 132.505 246.031 133.181 245.817C133.857 245.603 134.831 245.223 135.347 244.971C135.863 244.719 136.754 244.202 137.326 243.823C137.898 243.443 138.714 242.822 139.137 242.443C139.561 242.065 140.254 241.376 140.678 240.913C141.101 240.45 141.631 239.79 141.856 239.445C142.081 239.101 142.238 238.777 142.207 238.726C142.174 238.674 135.926 238.633 127.925 238.633C113.701 238.633 113.701 238.633 113.758 238.852C113.79 238.973 114.077 239.416 114.396 239.838C114.715 240.259 115.326 240.977 115.755 241.434C116.183 241.89 116.924 242.576 117.401 242.958C117.878 243.341 118.665 243.893 119.149 244.186C119.633 244.479 120.44 244.908 120.943 245.14C121.446 245.371 122.397 245.722 123.056 245.92C123.716 246.118 124.664 246.335 125.164 246.402C125.664 246.47 126.362 246.541 126.714 246.561C127.067 246.581 127.957 246.577 128.692 246.552ZM31.5484 239.013C31.7117 238.982 32.5295 238.697 33.3657 238.379C34.2019 238.061 35.9563 237.388 37.2643 236.884C38.5723 236.38 40.6408 235.587 41.861 235.122C43.0812 234.657 45.0898 233.886 46.3245 233.408C47.5592 232.93 49.3632 232.235 50.3333 231.864C51.3035 231.492 52.9871 230.848 54.0749 230.432C55.1626 230.015 56.5037 229.499 57.055 229.285C57.6064 229.071 58.1487 228.82 58.2602 228.729C58.4521 228.572 57.6238 227.727 42.4811 212.636C30.6515 200.846 26.4683 196.74 26.3794 196.828C26.3133 196.894 25.6873 198.439 24.9883 200.262C24.2892 202.085 22.9943 205.446 22.1106 207.731C21.227 210.016 19.9726 213.265 19.3231 214.95C18.6736 216.635 17.659 219.285 17.0683 220.838C16.0896 223.411 16.0073 223.684 16.1398 223.908C16.2198 224.043 19.6527 227.51 23.7684 231.612C30.6815 238.502 31.2741 239.066 31.5484 239.013ZM130.402 230.169C149.044 230.162 149.605 230.156 150.072 229.958C150.337 229.846 150.783 229.589 151.063 229.388C151.344 229.186 151.72 228.81 151.898 228.551C152.077 228.292 152.316 227.81 152.43 227.479C152.549 227.135 152.638 226.594 152.638 226.214C152.638 225.848 152.542 225.244 152.425 224.872C152.308 224.499 152.052 223.995 151.857 223.751C151.661 223.507 151.358 223.188 151.185 223.043C151.011 222.897 150.659 222.669 150.402 222.535C150.088 222.372 149.613 222.26 148.961 222.195C148.395 222.138 139.255 222.112 127.142 222.134C106.296 222.17 106.296 222.17 105.655 222.468C105.302 222.632 104.788 222.987 104.513 223.256C104.235 223.528 103.88 224.034 103.712 224.396C103.441 224.98 103.41 225.163 103.41 226.166C103.41 227.155 103.443 227.355 103.694 227.889C103.851 228.222 104.187 228.721 104.443 228.998C104.702 229.28 105.166 229.624 105.494 229.779C106.062 230.045 106.172 230.057 108.648 230.116C110.059 230.149 119.849 230.173 130.402 230.169ZM198.082 230.215C200.646 230.215 202.037 230.177 202.081 230.106C202.118 230.046 202.196 229.507 202.254 228.907C202.312 228.308 202.473 227.266 202.611 226.592C202.749 225.918 203.058 224.863 203.297 224.247C203.537 223.631 203.979 222.696 204.28 222.169C204.582 221.642 205.081 220.875 205.389 220.465C205.698 220.055 206.28 219.366 206.683 218.934C207.086 218.501 207.73 217.899 208.115 217.594C208.5 217.29 209.103 216.847 209.456 216.61C209.809 216.372 210.578 215.937 211.166 215.643C211.754 215.349 212.74 214.938 213.358 214.729C213.975 214.52 215.057 214.238 215.763 214.104C216.752 213.915 217.401 213.86 218.596 213.865C219.728 213.87 220.492 213.937 221.429 214.111C222.134 214.243 223.209 214.516 223.817 214.718C224.425 214.919 225.4 215.329 225.983 215.627C226.566 215.926 227.452 216.46 227.951 216.814C228.451 217.169 229.13 217.694 229.46 217.982C229.819 218.295 230.141 218.492 230.262 218.473C230.373 218.455 231.668 217.242 233.14 215.777C235.293 213.634 235.809 213.067 235.774 212.877C235.751 212.748 235.464 212.354 235.138 212.003C234.811 211.651 234.28 210.966 233.957 210.48C233.635 209.994 233.156 209.165 232.892 208.637C232.629 208.11 232.243 207.223 232.034 206.666C231.826 206.109 231.543 205.079 231.406 204.376C231.209 203.365 231.157 202.743 231.157 201.393C231.157 200.029 231.207 199.432 231.409 198.421C231.547 197.724 231.799 196.749 231.967 196.252C232.135 195.756 232.508 194.86 232.795 194.261C233.082 193.662 233.613 192.733 233.975 192.196C234.337 191.659 234.973 190.837 235.387 190.369C235.801 189.901 236.51 189.213 236.962 188.84C237.415 188.466 238.073 187.97 238.426 187.736C238.779 187.503 239.44 187.11 239.895 186.864C240.35 186.617 241.096 186.273 241.552 186.097C242.008 185.922 242.863 185.66 243.45 185.514C244.038 185.368 245.158 185.179 245.938 185.093C246.719 185.008 247.404 184.909 247.462 184.874C247.527 184.834 247.566 183.337 247.566 180.924C247.566 177.039 247.566 177.039 247.326 176.946C247.193 176.894 246.532 176.797 245.856 176.73C245.18 176.662 244.217 176.518 243.718 176.409C243.218 176.3 242.472 176.093 242.061 175.949C241.649 175.804 240.904 175.495 240.404 175.262C239.904 175.03 238.966 174.487 238.319 174.055C237.563 173.551 236.739 172.87 236.011 172.147C235.388 171.529 234.583 170.596 234.222 170.075C233.861 169.554 233.33 168.667 233.041 168.104C232.753 167.541 232.347 166.625 232.139 166.068C231.932 165.511 231.63 164.432 231.468 163.671C231.23 162.546 231.173 161.995 231.166 160.74C231.161 159.89 231.218 158.777 231.293 158.267C231.368 157.756 231.547 156.875 231.691 156.31C231.835 155.744 232.189 154.739 232.477 154.075C232.766 153.412 233.321 152.385 233.711 151.792C234.1 151.199 234.719 150.356 235.086 149.919C235.453 149.482 235.767 149.04 235.783 148.938C235.803 148.817 234.887 147.83 233.14 146.089C231.67 144.624 230.401 143.382 230.32 143.329C230.215 143.26 229.923 143.45 229.281 144.002C228.79 144.425 227.98 145.039 227.481 145.367C226.982 145.694 226.089 146.189 225.498 146.467C224.906 146.744 223.953 147.12 223.38 147.302C222.807 147.484 221.911 147.702 221.39 147.786C220.868 147.87 219.984 147.972 219.425 148.013C218.818 148.057 217.963 148.037 217.3 147.962C216.69 147.892 215.71 147.738 215.122 147.619C214.534 147.499 213.596 147.232 213.037 147.025C212.479 146.818 211.637 146.456 211.167 146.221C210.697 145.986 209.952 145.552 209.51 145.257C209.069 144.962 208.363 144.441 207.942 144.1C207.521 143.759 206.856 143.132 206.464 142.706C206.072 142.281 205.43 141.454 205.037 140.867C204.645 140.281 204.05 139.227 203.715 138.523C203.381 137.82 202.985 136.822 202.835 136.304C202.685 135.787 202.466 134.799 202.348 134.108C202.23 133.417 202.133 132.654 202.133 132.411C202.133 132.169 202.093 131.97 202.043 131.97C201.993 131.97 201.922 132.797 201.885 133.808C201.848 134.819 201.767 135.934 201.705 136.286C201.643 136.637 201.474 137.626 201.33 138.483C201.185 139.339 200.922 140.668 200.744 141.435C200.566 142.202 200.251 143.419 200.044 144.14C199.837 144.86 199.422 146.145 199.12 146.994C198.819 147.844 198.308 149.163 197.985 149.925C197.662 150.687 197.346 151.444 197.282 151.608C197.188 151.847 197.197 151.926 197.324 152.006C197.411 152.061 197.899 152.107 198.407 152.108C198.915 152.108 199.829 152.158 200.438 152.219C201.047 152.279 202.146 152.428 202.881 152.55C203.616 152.672 204.764 152.91 205.431 153.081C206.099 153.251 207.302 153.634 208.104 153.933C208.906 154.232 210.26 154.828 211.113 155.258C211.965 155.688 213.24 156.417 213.946 156.878C214.651 157.339 215.637 158.044 216.137 158.446C216.637 158.847 217.434 159.526 217.909 159.954C218.384 160.382 219.164 161.183 219.643 161.733C220.121 162.284 220.774 163.067 221.093 163.473C221.413 163.88 221.991 164.7 222.378 165.295C222.766 165.89 223.322 166.823 223.614 167.368C223.905 167.913 224.381 168.91 224.671 169.584C224.96 170.258 225.349 171.265 225.535 171.822C225.721 172.379 225.989 173.29 226.13 173.847C226.272 174.403 226.488 175.445 226.61 176.162C226.732 176.879 226.871 178.257 226.918 179.225C226.966 180.192 226.967 181.763 226.92 182.716C226.874 183.669 226.734 185.024 226.61 185.728C226.486 186.431 226.244 187.569 226.071 188.256C225.898 188.943 225.54 190.086 225.275 190.796C225.01 191.506 224.388 192.886 223.893 193.862C223.398 194.839 222.721 196.043 222.388 196.538C222.055 197.033 221.44 197.896 221.021 198.456C220.602 199.016 219.488 200.243 218.545 201.185C217.524 202.204 216.335 203.265 215.603 203.81C214.927 204.313 213.94 204.997 213.411 205.33C212.882 205.663 211.752 206.281 210.899 206.703C210.046 207.126 208.744 207.695 208.005 207.968C207.266 208.241 206.094 208.611 205.402 208.791C204.709 208.97 203.605 209.21 202.947 209.323C202.29 209.437 200.84 209.587 199.724 209.657C197.991 209.766 197.417 209.76 195.773 209.612C194.714 209.518 193.127 209.292 192.245 209.11C191.363 208.929 190.04 208.586 189.305 208.349C188.57 208.111 187.464 207.703 186.846 207.442C186.229 207.18 185.189 206.683 184.535 206.337C183.881 205.991 182.799 205.341 182.13 204.893C181.461 204.445 180.459 203.714 179.904 203.268C179.349 202.822 178.386 201.954 177.765 201.338C177.144 200.723 176.212 199.692 175.694 199.047C175.176 198.403 174.417 197.372 174.007 196.756C173.596 196.141 172.917 194.966 172.497 194.146C172.078 193.325 171.526 192.13 171.272 191.491C171.018 190.851 170.67 189.892 170.499 189.36C170.328 188.827 170.069 187.816 169.923 187.113C169.777 186.41 169.625 185.607 169.586 185.328C169.54 184.999 169.463 184.822 169.365 184.822C169.283 184.822 168.727 185.385 168.13 186.074C167.533 186.763 166.698 187.758 166.273 188.285C165.848 188.813 165.162 189.7 164.747 190.256C164.333 190.813 163.658 191.772 163.248 192.387C162.838 193.003 162.156 194.082 161.734 194.785C161.312 195.488 160.659 196.687 160.283 197.449C159.907 198.211 159.351 199.41 159.048 200.113C158.744 200.816 158.471 201.566 158.441 201.779C158.395 202.104 158.454 202.267 158.811 202.791C159.045 203.135 159.437 203.813 159.681 204.298C159.926 204.782 160.217 205.43 160.328 205.736C160.44 206.042 160.613 206.653 160.712 207.092C160.812 207.532 160.919 208.459 160.95 209.153C160.981 209.846 160.955 210.757 160.892 211.177C160.829 211.597 160.716 212.217 160.64 212.555C160.504 213.169 160.504 213.169 163.118 215.803C164.557 217.251 165.79 218.474 165.859 218.519C165.936 218.57 166.326 218.323 166.878 217.874C167.37 217.473 168.156 216.877 168.625 216.549C169.094 216.222 169.935 215.732 170.492 215.461C171.05 215.19 172.012 214.809 172.631 214.613C173.25 214.418 174.284 214.168 174.929 214.058C175.775 213.914 176.565 213.863 177.76 213.874C179.152 213.888 179.657 213.941 180.925 214.21C181.755 214.385 182.886 214.707 183.437 214.926C183.989 215.144 184.922 215.583 185.51 215.9C186.098 216.218 187.012 216.798 187.541 217.188C188.07 217.578 188.869 218.259 189.315 218.702C189.762 219.144 190.448 219.938 190.84 220.465C191.231 220.993 191.801 221.904 192.105 222.49C192.409 223.076 192.813 223.947 193.002 224.426C193.192 224.905 193.422 225.628 193.514 226.033C193.607 226.438 193.756 227.257 193.845 227.852C193.935 228.448 194.009 229.191 194.009 229.504C194.009 229.817 194.041 230.105 194.08 230.144C194.119 230.183 195.92 230.215 198.082 230.215ZM66.0759 224.215C66.1796 224.204 72.664 217.817 80.4858 210.023C91.6614 198.886 94.6986 195.803 94.6672 195.629C94.6452 195.508 94.3789 194.998 94.0754 194.497C93.7719 193.997 93.1738 193.065 92.7463 192.427C92.3188 191.789 91.516 190.668 90.9624 189.936C90.4087 189.204 89.4957 188.056 88.9335 187.386C88.3713 186.715 87.4538 185.661 86.8946 185.043C86.3355 184.426 84.9913 183.008 83.9075 181.894C82.8237 180.779 81.8582 179.807 81.7618 179.734C81.6092 179.617 79.6601 181.521 66.5747 194.57C56.5222 204.594 51.5627 209.611 51.5627 209.756C51.5627 209.899 53.9627 212.361 58.7251 217.103C63.3268 221.685 65.9548 224.228 66.0759 224.215ZM127.783 213.769C133.604 213.775 140.94 213.75 144.086 213.713C149.805 213.645 149.805 213.645 150.412 213.348C150.779 213.169 151.246 212.807 151.594 212.432C152.03 211.963 152.227 211.639 152.404 211.102C152.536 210.701 152.638 210.121 152.638 209.773C152.638 209.434 152.56 208.895 152.466 208.577C152.371 208.258 152.176 207.797 152.032 207.552C151.888 207.307 151.575 206.93 151.335 206.714C151.096 206.498 150.629 206.196 150.299 206.041C149.698 205.76 149.698 205.76 127.944 205.76C106.189 205.76 106.189 205.76 105.58 206.045C105.245 206.201 104.76 206.54 104.502 206.797C104.244 207.055 103.892 207.55 103.721 207.898C103.435 208.48 103.41 208.625 103.41 209.703C103.41 210.783 103.434 210.925 103.722 211.51C103.894 211.859 104.217 212.342 104.439 212.583C104.662 212.824 105.123 213.161 105.463 213.333C106.082 213.645 106.082 213.645 111.641 213.702C114.699 213.734 121.963 213.764 127.783 213.769ZM45.444 203.657C45.5476 203.642 52.3439 196.94 60.5468 188.765C71.731 177.618 75.4532 173.847 75.4293 173.687C75.4117 173.57 74.7039 172.779 73.8564 171.931C73.0089 171.082 71.4529 169.452 70.3986 168.308C69.3443 167.164 67.9774 165.629 67.3611 164.896C66.7447 164.163 65.7358 162.902 65.1189 162.093C64.5021 161.284 63.5991 160.037 63.1124 159.322C62.6256 158.608 62.1609 158.03 62.0798 158.038C61.9986 158.046 54.9568 165.01 46.4314 173.514C36.1253 183.795 30.9307 189.049 30.9307 189.191C30.9307 189.332 33.3677 191.834 38.0931 196.545C42.8698 201.306 45.3183 203.675 45.444 203.657ZM197.911 201.323C198.851 201.33 200.223 201.266 200.959 201.179C201.695 201.093 202.917 200.853 203.674 200.646C204.431 200.439 205.561 200.055 206.184 199.793C206.808 199.531 207.837 199.008 208.471 198.632C209.105 198.256 209.995 197.673 210.448 197.337C210.902 197.001 211.902 196.097 212.672 195.329C213.441 194.561 214.297 193.621 214.576 193.24C214.854 192.859 215.374 192.068 215.733 191.482C216.091 190.896 216.575 189.985 216.808 189.457C217.041 188.93 217.372 188.091 217.543 187.592C217.714 187.094 217.951 186.314 218.068 185.858C218.185 185.402 218.352 184.494 218.439 183.84C218.525 183.186 218.596 181.929 218.595 181.046C218.594 180.163 218.523 178.84 218.436 178.106C218.35 177.372 218.185 176.405 218.07 175.957C217.955 175.509 217.718 174.718 217.543 174.198C217.369 173.679 217.036 172.847 216.805 172.351C216.574 171.855 216.139 171.038 215.84 170.535C215.54 170.032 214.995 169.217 214.628 168.723C214.262 168.23 213.43 167.284 212.78 166.62C212.13 165.957 211.141 165.067 210.581 164.642C210.021 164.216 209.132 163.611 208.606 163.296C208.079 162.982 207.189 162.517 206.628 162.264C206.067 162.011 205.102 161.64 204.485 161.44C203.868 161.24 202.857 160.973 202.24 160.846C201.416 160.678 200.55 160.6 198.98 160.554C197.703 160.517 196.368 160.54 195.666 160.61C195.019 160.675 193.93 160.87 193.246 161.043C192.562 161.217 191.791 161.452 191.533 161.566C191.162 161.729 190.863 162.028 190.108 162.988C189.583 163.656 188.698 164.731 188.143 165.375C187.587 166.02 186.468 167.274 185.656 168.163C184.844 169.051 182.848 171.127 181.22 172.776C178.435 175.597 178.252 175.806 178.116 176.328C178.037 176.633 177.912 177.29 177.839 177.789C177.765 178.297 177.706 179.729 177.706 181.049C177.706 182.846 177.753 183.677 177.904 184.565C178.012 185.204 178.262 186.259 178.46 186.908C178.657 187.557 179.075 188.66 179.39 189.359C179.704 190.058 180.272 191.124 180.651 191.728C181.031 192.333 181.677 193.244 182.087 193.753C182.498 194.262 183.231 195.071 183.716 195.551C184.202 196.031 184.997 196.731 185.482 197.108C185.968 197.484 186.774 198.047 187.274 198.358C187.774 198.669 188.672 199.158 189.27 199.443C189.868 199.728 190.85 200.127 191.452 200.329C192.054 200.531 193.008 200.794 193.572 200.913C194.135 201.032 194.957 201.17 195.398 201.22C195.839 201.27 196.97 201.316 197.911 201.323ZM123.721 197.236C123.721 175.818 123.721 175.818 123.422 175.179C123.257 174.827 122.878 174.291 122.578 173.987C122.256 173.661 121.766 173.313 121.38 173.135C120.728 172.835 120.728 172.835 115.49 172.764C110.915 172.702 110.109 172.666 109.129 172.482C108.512 172.366 107.598 172.119 107.098 171.934C106.598 171.748 105.893 171.431 105.53 171.229C105.168 171.028 104.494 170.582 104.033 170.239C103.573 169.896 102.881 169.285 102.495 168.881C102.11 168.477 101.568 167.827 101.291 167.437C101.014 167.048 100.575 166.281 100.316 165.733C100.057 165.185 99.7444 164.436 99.6217 164.07C99.499 163.703 99.3173 162.936 99.2178 162.365C99.1185 161.794 99.0393 160.871 99.042 160.314C99.0448 159.727 99.1458 158.794 99.2825 158.093C99.4122 157.428 99.6602 156.528 99.8336 156.093C100.007 155.657 100.313 154.979 100.513 154.584C100.713 154.19 101.127 153.532 101.432 153.121C101.738 152.711 102.259 152.097 102.592 151.756C102.924 151.416 103.533 150.88 103.944 150.565C104.356 150.251 105.053 149.791 105.494 149.543C105.935 149.294 106.681 148.951 107.151 148.779C107.622 148.607 108.464 148.366 109.022 148.242C110.033 148.019 110.129 148.018 131.044 147.993C143.491 147.979 152.467 147.927 153.072 147.866C153.804 147.793 154.248 147.687 154.632 147.493C154.928 147.343 155.41 146.959 155.704 146.638C156.042 146.27 156.328 145.818 156.48 145.413C156.684 144.868 156.714 144.614 156.68 143.725C156.648 142.902 156.586 142.57 156.389 142.17C156.252 141.889 155.933 141.432 155.682 141.153C155.43 140.875 154.943 140.505 154.599 140.331C154.006 140.031 153.885 140.012 152.21 139.945C151.24 139.907 143.564 139.871 135.151 139.865C125.18 139.859 119.45 139.816 118.689 139.741C118.046 139.679 117.208 139.558 116.826 139.472C116.444 139.387 115.794 139.191 115.383 139.037C114.971 138.884 114.394 138.639 114.1 138.492C113.806 138.346 113.205 137.985 112.764 137.69C112.323 137.395 111.632 136.838 111.229 136.453C110.826 136.068 110.255 135.451 109.96 135.082C109.665 134.712 109.212 134.041 108.953 133.59C108.695 133.138 108.334 132.386 108.15 131.917C107.967 131.448 107.727 130.681 107.618 130.212C107.493 129.675 107.374 128.504 107.296 127.05C107.223 125.686 107.19 122.809 107.215 120.018L107.258 115.294L85.2677 115.267C63.2771 115.24 63.2771 115.24 63.1674 115.64C63.107 115.86 62.9134 117.071 62.7371 118.331C62.5607 119.591 62.3556 121.341 62.2812 122.22C62.2052 123.118 62.1459 125.453 62.1459 127.548C62.1459 129.739 62.2031 131.915 62.2846 132.822C62.3609 133.672 62.5152 134.991 62.6276 135.753C62.74 136.515 62.9244 137.594 63.0375 138.15C63.1506 138.707 63.4397 139.906 63.6801 140.814C63.9205 141.723 64.3301 143.089 64.5904 143.851C64.8508 144.613 65.3072 145.82 65.6047 146.534C65.9022 147.248 66.4547 148.447 66.8325 149.198C67.2102 149.949 67.869 151.163 68.2965 151.896C68.724 152.629 69.4595 153.803 69.9309 154.507C70.4023 155.21 71.1495 156.265 71.5913 156.851C72.0332 157.437 73.0953 158.755 73.9516 159.779C74.808 160.804 76.7906 162.961 78.3575 164.574C79.9244 166.187 82.8793 169.137 84.9239 171.13C86.9686 173.122 89.5313 175.687 90.6189 176.83C91.7064 177.973 93.3616 179.795 94.2971 180.879C95.2325 181.964 96.6364 183.69 97.4168 184.715C98.1973 185.741 99.3433 187.347 99.9636 188.285C100.584 189.223 101.356 190.45 101.68 191.013C102.004 191.575 102.619 192.726 103.045 193.57C103.472 194.414 104.027 195.56 104.279 196.117C104.53 196.674 104.79 197.218 104.856 197.326C104.954 197.489 105.053 197.511 105.422 197.451C105.667 197.411 109.885 197.347 114.795 197.307L123.721 197.236ZM115.703 115.294C115.647 123.304 115.674 126.325 115.728 127.175C115.813 128.536 115.86 128.79 116.119 129.306C116.28 129.628 116.614 130.098 116.86 130.35C117.106 130.602 117.572 130.937 117.895 131.096C118.483 131.384 118.483 131.384 122.545 131.457C124.779 131.497 132.476 131.529 139.649 131.527C148.523 131.525 153.032 131.562 153.756 131.643C154.342 131.708 155.256 131.86 155.787 131.982C156.367 132.114 157.24 132.433 157.969 132.779C158.638 133.096 159.499 133.578 159.882 133.851C160.265 134.124 160.912 134.66 161.318 135.042C161.725 135.424 162.351 136.124 162.709 136.597C163.068 137.071 163.57 137.889 163.826 138.417C164.081 138.944 164.387 139.652 164.505 139.99C164.624 140.327 164.803 141.071 164.903 141.641C165.004 142.216 165.085 143.226 165.085 143.904C165.085 144.582 165.004 145.593 164.903 146.166C164.803 146.736 164.607 147.527 164.467 147.924C164.328 148.321 164.019 149.031 163.782 149.502C163.544 149.972 163.064 150.739 162.715 151.206C162.366 151.674 161.716 152.399 161.272 152.818C160.827 153.237 160.109 153.818 159.677 154.108C159.245 154.399 158.651 154.758 158.357 154.906C158.063 155.055 157.51 155.303 157.127 155.459C156.745 155.614 156.024 155.836 155.524 155.952C154.863 156.105 153.889 156.193 151.943 156.276C150.322 156.345 141.592 156.397 129.761 156.407C110.251 156.425 110.251 156.425 109.752 156.657C109.478 156.785 109.05 157.072 108.802 157.296C108.554 157.519 108.239 157.879 108.102 158.094C107.966 158.309 107.756 158.776 107.636 159.13C107.517 159.485 107.419 160.041 107.419 160.367C107.419 160.693 107.517 161.25 107.636 161.604C107.756 161.959 107.967 162.425 108.106 162.64C108.244 162.855 108.519 163.184 108.717 163.37C108.914 163.557 109.34 163.844 109.664 164.009C110.251 164.309 110.251 164.309 113.298 164.332C114.974 164.345 117.499 164.406 118.91 164.468C120.335 164.53 121.809 164.651 122.224 164.74C122.636 164.828 123.285 165.002 123.668 165.126C124.05 165.251 124.747 165.544 125.218 165.778C125.688 166.012 126.337 166.384 126.661 166.605C126.984 166.825 127.583 167.295 127.991 167.649C128.399 168.003 129.036 168.667 129.406 169.125C129.776 169.583 130.323 170.425 130.62 170.997C130.917 171.569 131.278 172.347 131.421 172.727C131.565 173.106 131.786 173.957 131.914 174.617C132.141 175.786 132.149 176.107 132.21 186.527L132.273 197.236L139.436 197.256C143.375 197.267 147.392 197.32 148.362 197.373C149.332 197.427 150.337 197.466 150.596 197.46C151.066 197.449 151.066 197.449 151.617 196.224C151.92 195.55 152.573 194.207 153.069 193.24C153.565 192.273 154.305 190.93 154.712 190.256C155.12 189.582 155.793 188.527 156.208 187.912C156.624 187.297 157.323 186.314 157.762 185.728C158.201 185.142 158.914 184.212 159.345 183.661C159.776 183.111 160.811 181.867 161.645 180.898C162.478 179.928 164.007 178.245 165.043 177.157C166.079 176.069 168.813 173.333 171.12 171.076C173.427 168.82 176.28 165.967 177.461 164.736C178.642 163.505 180.01 162.05 180.501 161.503C180.992 160.955 181.843 159.972 182.392 159.318C182.941 158.665 183.872 157.482 184.462 156.691C185.051 155.9 185.919 154.653 186.39 153.921C186.861 153.188 187.563 152.037 187.949 151.363C188.335 150.689 188.965 149.491 189.348 148.699C189.732 147.908 190.293 146.638 190.594 145.876C190.896 145.114 191.305 143.987 191.504 143.372C191.703 142.756 192.034 141.635 192.241 140.88C192.448 140.125 192.741 138.878 192.892 138.109C193.043 137.341 193.257 136.088 193.368 135.327C193.478 134.565 193.621 133.198 193.685 132.29C193.748 131.381 193.829 129.631 193.864 128.4C193.907 126.856 193.873 125.354 193.755 123.552C193.66 122.116 193.529 120.486 193.463 119.929C193.397 119.372 193.228 118.174 193.086 117.265C192.944 116.357 192.709 115.014 192.562 114.282C192.416 113.549 192.103 112.207 191.866 111.298C191.63 110.39 191.219 108.937 190.954 108.071C190.688 107.204 190.238 105.862 189.952 105.087C189.666 104.313 189.04 102.768 188.561 101.655C188.081 100.541 187.242 98.7671 186.695 97.7122C186.148 96.6573 185.254 95.0519 184.709 94.1446C184.163 93.2374 183.283 91.8468 182.752 91.0545C182.222 90.2622 181.391 89.0864 180.905 88.4418C180.419 87.7971 179.512 86.6489 178.888 85.8902C178.264 85.1315 177.094 83.7948 176.287 82.9197C175.48 82.0445 174.075 80.6327 173.164 79.7822C172.253 78.9318 170.834 77.6749 170.01 76.9892C169.187 76.3035 167.984 75.3469 167.337 74.8634C166.69 74.3799 165.463 73.5166 164.611 72.9449C163.758 72.3732 162.315 71.4593 161.404 70.9141C160.492 70.3688 158.975 69.523 158.031 69.0346C157.087 68.5461 155.596 67.831 154.717 67.4456C153.838 67.0601 152.579 66.5317 151.919 66.2714C151.26 66.0111 150.009 65.5561 149.14 65.2603C148.271 64.9645 146.983 64.5536 146.277 64.3473C145.572 64.141 144.441 63.8325 143.765 63.6619C143.089 63.4912 141.934 63.2292 141.199 63.0796C140.464 62.9301 139.238 62.7161 138.473 62.604C137.709 62.492 136.704 62.3665 136.239 62.3251C135.394 62.2499 135.394 62.2498 135.453 62.6656C135.485 62.8943 135.586 63.4889 135.677 63.9871C135.768 64.4852 135.895 65.2764 135.96 65.7453C136.025 66.2141 136.107 67.6278 136.142 68.8869C136.179 70.2179 136.158 71.712 136.092 72.4565C136.029 73.1608 136.013 73.7735 136.056 73.818C136.099 73.8626 136.853 73.9705 137.732 74.0578C138.61 74.1451 139.834 74.3178 140.451 74.4416C141.068 74.5654 142.103 74.8461 142.749 75.0653C143.396 75.2844 144.431 75.7021 145.048 75.9933C145.665 76.2846 146.566 76.768 147.049 77.0674C147.532 77.3669 148.326 77.9126 148.813 78.2802C149.3 78.6477 150.209 79.4541 150.833 80.0722C151.457 80.6902 152.324 81.6754 152.758 82.2615C153.193 82.8476 153.782 83.7235 154.067 84.2079C154.351 84.6925 154.801 85.5795 155.066 86.1792C155.331 86.779 155.708 87.7492 155.905 88.3352C156.101 88.9213 156.366 89.9522 156.494 90.6262C156.663 91.5183 156.741 92.4312 156.78 93.9827C156.823 95.652 156.794 96.4025 156.65 97.4458C156.548 98.1784 156.352 99.2224 156.214 99.7659C156.076 100.309 155.739 101.316 155.466 102.004C155.193 102.691 154.751 103.661 154.484 104.159C154.218 104.657 153.672 105.544 153.271 106.13C152.871 106.716 152.156 107.637 151.683 108.176C151.21 108.716 150.411 109.516 149.908 109.954C149.405 110.392 148.503 111.084 147.903 111.49C147.303 111.897 146.403 112.448 145.903 112.715C145.403 112.981 144.535 113.389 143.975 113.62C143.414 113.851 142.517 114.168 141.982 114.325C141.447 114.482 140.486 114.702 139.848 114.813C139.093 114.945 137.641 115.059 135.694 115.138C134.048 115.205 128.876 115.268 124.202 115.277L115.703 115.294ZM198.596 193.283C198.043 193.311 197.349 193.295 197.055 193.248C196.761 193.201 196.161 193.102 195.722 193.028C195.282 192.954 194.633 192.799 194.278 192.683C193.924 192.568 193.28 192.311 192.846 192.111C192.412 191.912 191.738 191.539 191.349 191.282C190.96 191.025 190.315 190.526 189.917 190.174C189.518 189.821 188.893 189.173 188.527 188.733C188.161 188.293 187.701 187.667 187.505 187.342C187.308 187.017 186.961 186.319 186.732 185.791C186.504 185.263 186.223 184.472 186.107 184.033C185.992 183.594 185.839 182.755 185.768 182.168C185.668 181.348 185.667 180.822 185.761 179.898C185.829 179.236 186.007 178.239 186.156 177.683C186.306 177.126 186.659 176.191 186.941 175.605C187.224 175.019 187.743 174.156 188.095 173.687C188.446 173.218 189.019 172.551 189.367 172.205C189.715 171.859 190.337 171.324 190.748 171.015C191.16 170.707 191.865 170.257 192.314 170.016C192.764 169.774 193.51 169.442 193.971 169.276C194.433 169.11 195.267 168.887 195.826 168.781C196.509 168.65 197.261 168.592 198.124 168.604C199.002 168.616 199.798 168.702 200.645 168.876C201.394 169.03 202.328 169.319 203.011 169.608C203.631 169.87 204.493 170.316 204.927 170.6C205.36 170.884 206.268 171.671 206.944 172.349C207.836 173.245 208.319 173.83 208.704 174.487C208.996 174.985 209.414 175.823 209.633 176.351C209.852 176.878 210.118 177.765 210.224 178.322C210.359 179.028 210.418 179.835 210.418 180.99C210.418 182.344 210.372 182.849 210.166 183.758C210.028 184.37 209.734 185.287 209.514 185.796C209.294 186.305 208.832 187.143 208.488 187.659C208.144 188.175 207.526 188.95 207.114 189.381C206.703 189.813 205.985 190.453 205.518 190.803C205.051 191.154 204.279 191.637 203.802 191.876C203.325 192.115 202.646 192.419 202.293 192.551C201.941 192.683 201.191 192.891 200.627 193.012C200.064 193.134 199.15 193.256 198.596 193.283ZM198.231 184.899C199.007 184.872 199.318 184.808 199.835 184.572C200.188 184.411 200.701 184.059 200.976 183.79C201.254 183.517 201.61 183.012 201.778 182.649C202.045 182.072 202.079 181.877 202.08 180.933C202.08 179.999 202.044 179.791 201.793 179.258C201.636 178.923 201.288 178.416 201.021 178.131C200.754 177.846 200.258 177.473 199.918 177.302C199.352 177.017 199.206 176.991 198.178 176.99C197.35 176.99 196.924 177.041 196.554 177.183C196.279 177.289 195.872 177.519 195.65 177.695C195.428 177.871 195.07 178.248 194.855 178.534C194.621 178.844 194.389 179.331 194.275 179.747C194.143 180.237 194.102 180.675 194.137 181.226C194.172 181.77 194.277 182.204 194.478 182.643C194.638 182.992 194.922 183.438 195.11 183.634C195.298 183.831 195.603 184.108 195.788 184.251C195.972 184.393 196.381 184.605 196.696 184.722C197.147 184.888 197.474 184.926 198.231 184.899ZM81.014 106.805C116.154 106.814 136.579 106.782 137.384 106.715C138.079 106.658 139.041 106.511 139.522 106.39C140.004 106.268 140.927 105.913 141.574 105.6C142.22 105.288 143.086 104.777 143.498 104.466C143.909 104.154 144.56 103.586 144.945 103.203C145.329 102.82 145.837 102.243 146.073 101.921C146.31 101.599 146.676 101.047 146.886 100.696C147.096 100.344 147.437 99.6249 147.644 99.0974C147.851 98.57 148.109 97.7548 148.218 97.2859C148.367 96.6401 148.415 96.0073 148.415 94.6753C148.415 93.4168 148.36 92.6317 148.221 91.9127C148.114 91.3603 147.867 90.5119 147.671 90.0273C147.475 89.5428 147.072 88.748 146.776 88.2613C146.48 87.7745 145.95 87.0393 145.598 86.6275C145.247 86.2157 144.661 85.6208 144.298 85.3055C143.934 84.9902 143.317 84.517 142.926 84.2539C142.535 83.9908 141.864 83.6149 141.435 83.4186C141.006 83.2224 140.237 82.9432 139.725 82.7983C139.213 82.6534 138.386 82.4853 137.888 82.4248C137.39 82.3643 136.62 82.3149 136.178 82.3151C135.735 82.3152 134.94 82.368 134.411 82.4324C133.882 82.4968 133.064 82.6696 132.594 82.8165C132.124 82.9634 131.354 83.2678 130.883 83.4929C130.413 83.718 129.716 84.1077 129.333 84.359C128.951 84.6103 128.259 85.1762 127.796 85.6165C127.333 86.0569 126.752 86.6809 126.506 87.0033C126.26 87.3256 125.883 87.8798 125.67 88.2348C125.456 88.5899 125.107 89.2851 124.894 89.7799C124.681 90.2747 124.416 91.063 124.304 91.5319C124.193 92.0008 124.053 92.8159 123.994 93.3434C123.908 94.1138 123.842 94.339 123.659 94.4888C123.451 94.6585 123.094 94.6753 119.7 94.6753C116.039 94.6753 115.967 94.6712 115.743 94.4486C115.534 94.24 115.522 94.1506 115.589 93.3256C115.629 92.8326 115.73 91.9752 115.814 91.4203C115.897 90.8653 116.059 90.0401 116.174 89.5863C116.288 89.1327 116.527 88.3539 116.705 87.8557C116.882 87.3576 117.218 86.5403 117.45 86.0396C117.683 85.5388 118.113 84.7237 118.408 84.2281C118.702 83.7325 119.264 82.8955 119.656 82.3681C120.049 81.8406 120.835 80.9375 121.404 80.3611C121.973 79.7847 122.775 79.0377 123.187 78.7011C123.598 78.3645 124.296 77.849 124.737 77.5556C125.178 77.2622 125.86 76.8437 126.254 76.6257C126.934 76.2491 126.978 76.2006 127.137 75.6565C127.229 75.3414 127.373 74.7087 127.457 74.2505C127.54 73.7923 127.66 72.924 127.723 72.3209C127.786 71.7179 127.837 70.7299 127.837 70.1254C127.837 69.5208 127.787 68.4079 127.727 67.6521C127.666 66.8964 127.546 65.8705 127.46 65.3723C127.374 64.8742 127.16 63.9391 126.986 63.2945C126.811 62.6498 126.473 61.6229 126.233 61.0124C125.994 60.4019 125.585 59.4668 125.326 58.9345C125.066 58.4022 124.541 57.4726 124.158 56.8688C123.776 56.265 123.146 55.3668 122.759 54.8728C122.372 54.3788 121.528 53.4279 120.884 52.7597C120.239 52.0915 119.206 51.1436 118.587 50.6533C117.968 50.163 116.976 49.4569 116.383 49.0843C115.79 48.7116 114.769 48.1404 114.115 47.815C113.46 47.4895 112.323 47.0117 111.588 46.7532C110.853 46.4946 109.674 46.1419 108.969 45.9694C108.263 45.797 107.109 45.5967 106.403 45.5244C105.697 45.4521 104.182 45.393 103.036 45.393C101.889 45.393 100.413 45.4537 99.755 45.5279C99.0971 45.6021 97.9046 45.8314 97.105 46.0375C96.3053 46.2436 95.1001 46.6244 94.4269 46.8838C93.7536 47.1432 92.7232 47.5956 92.1371 47.8892C91.551 48.1828 90.6426 48.6875 90.1184 49.0107C89.5941 49.3339 88.8105 49.8699 88.3768 50.2019C87.9432 50.5338 87.135 51.2179 86.5809 51.7221C86.0267 52.2263 85.2202 53.0411 84.7886 53.5326C84.357 54.0243 83.7467 54.7675 83.4323 55.1843C83.1179 55.6011 82.6547 56.2777 82.403 56.688C82.1513 57.0982 81.732 57.8175 81.4713 58.2863C81.2106 58.7552 80.8161 59.5703 80.5947 60.0978C80.3734 60.6252 80.0663 61.4164 79.9124 61.856C79.7584 62.2955 79.488 63.2009 79.3114 63.868C79.1348 64.5351 78.9589 65.3574 78.9205 65.6954C78.8559 66.2645 78.8695 66.3212 79.1039 66.4624C79.2431 66.5462 79.814 66.7907 80.3726 67.0057C80.9312 67.2207 81.812 67.6337 82.33 67.9235C82.848 68.2134 83.663 68.7289 84.141 69.0692C84.6191 69.4095 85.4714 70.1434 86.035 70.7001C86.5986 71.2569 87.3637 72.1339 87.7352 72.6489C88.1067 73.164 88.646 74.0308 88.9335 74.5752C89.221 75.1196 89.6484 76.075 89.8833 76.6983C90.1182 77.3216 90.4091 78.3728 90.5296 79.0343C90.6502 79.6957 90.778 80.6019 90.8136 81.0481C90.8722 81.7823 90.8567 81.8808 90.6498 82.087C90.4251 82.311 90.3588 82.3148 86.6916 82.3148C83.2948 82.3148 82.9422 82.2981 82.7414 82.1283C82.5804 81.9921 82.491 81.7263 82.41 81.1427C82.3491 80.7031 82.2293 80.086 82.1439 79.7714C82.0586 79.4567 81.8664 78.9532 81.7169 78.6525C81.5674 78.3518 81.2023 77.7852 80.9055 77.3934C80.6087 77.0016 80.1269 76.4668 79.8347 76.205C79.5426 75.9432 79.0296 75.5478 78.6948 75.3263C78.36 75.1048 77.7434 74.7908 77.3244 74.6287C76.9055 74.4666 76.2534 74.2839 75.8753 74.2227C75.4972 74.1616 74.803 74.1116 74.3327 74.1116C73.8623 74.1116 73.1691 74.1614 72.7921 74.2224C72.4152 74.2834 71.8383 74.4273 71.51 74.5423C71.1818 74.6573 70.5434 74.9742 70.0914 75.2466C69.6393 75.519 68.9312 76.0819 68.5178 76.4976C68.0759 76.9418 67.5648 77.6048 67.2778 78.1058C67.0093 78.5747 66.6671 79.3566 66.5173 79.8435C66.3674 80.3305 66.2171 80.9973 66.1831 81.3253C66.1446 81.6969 66.047 81.9959 65.9242 82.1183C65.7401 82.3018 65.4781 82.3148 61.9525 82.3148C58.9475 82.3148 58.1376 82.2854 57.9801 82.1705C57.8035 82.0418 57.7895 81.9241 57.8501 81.0783C57.8875 80.557 57.9933 79.6988 58.0853 79.1714C58.1773 78.6439 58.4246 77.7089 58.6349 77.0935C58.8453 76.4781 59.2587 75.4952 59.5536 74.9091C59.8486 74.3231 60.2844 73.5559 60.522 73.2042C60.7597 72.8526 61.2277 72.2292 61.5619 71.819C61.8962 71.4087 62.5019 70.7609 62.9078 70.3793C63.3137 69.9977 63.9337 69.4657 64.2856 69.197C64.6375 68.9284 65.2438 68.509 65.633 68.2651C66.0222 68.0211 66.8092 67.6033 67.3819 67.3365C67.9546 67.0698 68.7973 66.7287 69.2546 66.5785C69.7118 66.4283 70.1431 66.2702 70.213 66.2272C70.2828 66.1842 70.4531 65.4827 70.5914 64.6684C70.7296 63.8542 70.9667 62.6844 71.1182 62.0691C71.2697 61.4537 71.5678 60.4228 71.7807 59.7781C71.9936 59.1334 72.3539 58.1383 72.5814 57.5667C72.8089 56.9951 73.2662 55.9881 73.5978 55.329C73.9293 54.6699 74.4898 53.6511 74.8432 53.0651C75.1966 52.479 75.7793 51.5919 76.138 51.0938C76.4967 50.5956 77.1541 49.7325 77.5989 49.1758C78.0437 48.619 78.8378 47.7129 79.3634 47.1623C79.889 46.6117 80.8002 45.7459 81.3881 45.2383C81.9761 44.7307 82.842 44.0268 83.3124 43.6739C83.7827 43.3211 84.5524 42.7777 85.0228 42.4664C85.4931 42.1551 85.9896 41.7996 86.1261 41.6764C86.2741 41.5427 86.3576 41.366 86.3331 41.2381C86.3105 41.1203 85.8905 40.4246 85.3998 39.6921C84.9092 38.9596 84.1212 37.8568 83.6487 37.2414C83.1762 36.6261 82.0173 35.3498 81.0733 34.4052C80.1294 33.4607 78.8519 32.2897 78.2346 31.8031C77.6172 31.3165 76.5463 30.5452 75.8548 30.0892C75.1632 29.6331 74.0863 28.9867 73.4617 28.6527C72.837 28.3188 71.7913 27.8092 71.1378 27.5205C70.4843 27.2318 69.3243 26.7812 68.56 26.5192C67.7956 26.2573 66.6411 25.9059 65.9944 25.7385C65.3476 25.571 64.2171 25.3344 63.4822 25.2127C62.7472 25.091 61.4484 24.943 60.5958 24.8839C59.7433 24.8248 58.4294 24.776 57.6761 24.7754C56.9228 24.7748 55.5999 24.8247 54.7363 24.8863C53.8728 24.9479 52.7814 25.0637 52.311 25.1438C51.8406 25.2239 50.8483 25.4346 50.1058 25.6121C49.3633 25.7896 48.1091 26.1502 47.3187 26.4134C46.5284 26.6766 45.2598 27.1621 44.4996 27.4924C43.7395 27.8227 42.6845 28.3377 42.1554 28.637C41.6262 28.9363 40.7363 29.4685 40.1777 29.8197C39.6192 30.1709 38.6089 30.8775 37.9328 31.39C37.2566 31.9025 36.2102 32.7694 35.6073 33.3165C35.0045 33.8635 34.0524 34.8146 33.4915 35.43C32.9307 36.0453 32.0717 37.0763 31.5826 37.7209C31.0936 38.3656 30.3323 39.4685 29.8909 40.1717C29.4495 40.875 28.8682 41.858 28.5992 42.3561C28.3302 42.8543 27.8742 43.8133 27.5858 44.4873C27.2975 45.1612 26.8662 46.2881 26.6274 46.9913C26.3887 47.6946 26.0235 48.9653 25.816 49.8151C25.6084 50.6649 25.3641 51.8656 25.273 52.4833C25.1819 53.101 25.0546 54.3238 24.99 55.2005C24.9253 56.0772 24.902 57.4898 24.938 58.3396C24.9741 59.1894 25.053 60.4361 25.1135 61.1101C25.1739 61.784 25.3162 62.8869 25.4297 63.5609C25.5433 64.2348 25.6985 65.0002 25.7748 65.2617C25.9134 65.7371 25.9134 65.7371 27.0324 65.8744C27.6478 65.95 28.6805 66.1103 29.3272 66.2308C29.974 66.3512 31.0073 66.5938 31.6234 66.7699C32.2396 66.946 33.2361 67.282 33.8378 67.5165C34.4395 67.751 35.4507 68.2086 36.0849 68.5334C36.7191 68.8582 37.719 69.4374 38.3069 69.8205C38.8949 70.2036 39.7787 70.8305 40.2709 71.2136C40.7631 71.5967 41.6543 72.3931 42.2513 72.9834C42.8483 73.5737 43.6422 74.4318 44.0155 74.8904C44.3889 75.349 45.0434 76.2449 45.47 76.8814C45.8966 77.5179 46.5182 78.5697 46.8513 79.2189C47.1844 79.868 47.6444 80.8661 47.8735 81.4369C48.1025 82.0076 48.4157 82.9062 48.5695 83.4336C48.7232 83.9611 48.9381 84.8242 49.0471 85.3516C49.1561 85.8791 49.2968 86.7422 49.3598 87.2696C49.4228 87.7971 49.5059 88.6417 49.5443 89.1464C49.6088 89.9922 49.5964 90.0821 49.3859 90.2919C49.1613 90.5158 49.0946 90.5196 45.4277 90.5196C42.0326 90.5196 41.6772 90.5029 41.4666 90.3328C41.2708 90.1748 41.2194 89.974 41.1325 89.0275C41.0761 88.4123 40.9569 87.5138 40.8678 87.0309C40.7786 86.5479 40.5347 85.6608 40.3257 85.0596C40.1167 84.4583 39.6839 83.4625 39.364 82.8467C39.0441 82.2309 38.4638 81.2959 38.0745 80.7689C37.6851 80.2419 36.8792 79.3312 36.2836 78.7451C35.6561 78.1277 34.7356 77.3685 34.0952 76.94C33.4872 76.5332 32.5746 75.9925 32.0672 75.7384C31.5597 75.4843 30.6234 75.1082 29.9864 74.9027C29.3495 74.6973 28.3445 74.4468 27.7533 74.3462C27.0164 74.2208 26.0861 74.1632 24.7957 74.1632C23.7603 74.1632 22.4802 74.2256 21.951 74.3019C21.4219 74.3782 20.4257 74.6276 19.7373 74.8562C19.0489 75.0848 18.0867 75.4625 17.5992 75.6955C17.1117 75.9286 16.2799 76.4075 15.7508 76.7598C15.2216 77.112 14.4392 77.7046 14.012 78.0765C13.5849 78.4484 12.918 79.1106 12.53 79.5481C12.142 79.9856 11.5976 80.6791 11.3201 81.0894C11.0427 81.4996 10.6494 82.123 10.4461 82.4746C10.2428 82.8263 9.94126 83.4256 9.77591 83.8066C9.61057 84.1875 9.36226 84.8348 9.22409 85.2451C9.08592 85.6553 8.89999 86.3266 8.8109 86.7369C8.72183 87.1471 8.59923 87.8578 8.53848 88.3163C8.47774 88.7747 8.42803 89.7128 8.42803 90.4009C8.42803 91.089 8.49783 92.1764 8.58314 92.8174C8.66844 93.4583 8.8637 94.4143 9.01703 94.9417C9.17036 95.4692 9.46195 96.3083 9.665 96.8064C9.86806 97.3046 10.2562 98.0958 10.5275 98.5646C10.7988 99.0335 11.2395 99.7288 11.5069 100.11C11.7743 100.491 12.574 101.38 13.284 102.085C14.0459 102.843 14.9476 103.615 15.4845 103.969C15.9848 104.3 16.8026 104.786 17.3018 105.049C17.801 105.312 18.6971 105.695 19.2931 105.901C19.8891 106.106 20.755 106.354 21.2173 106.451C21.6797 106.549 22.9238 106.665 23.9822 106.709C25.0405 106.754 50.7048 106.797 81.014 106.805ZM195.09 95.6137C195.202 95.5958 200.128 90.7625 206.036 84.8733C211.945 78.984 216.779 74.0929 216.779 74.0042C216.779 73.9155 213.509 70.584 209.513 66.6009C202.246 59.3588 202.246 59.3588 202.001 59.5685C201.865 59.6838 197.601 63.9324 192.524 69.0099C185.301 76.2343 183.315 78.2778 183.388 78.4078C183.439 78.4992 183.851 79.0002 184.302 79.5211C184.754 80.042 185.445 80.8717 185.838 81.3649C186.231 81.858 187.019 82.8848 187.589 83.6467C188.158 84.4086 189.014 85.6074 189.491 86.3106C189.967 87.0139 190.697 88.1283 191.111 88.787C191.526 89.4458 192.197 90.5726 192.603 91.2911C193.009 92.0096 193.688 93.2835 194.113 94.1219C194.74 95.3606 194.923 95.6403 195.09 95.6137ZM177.309 72.2673C177.384 72.2552 181.655 68.0525 186.801 62.9281C193.335 56.4208 196.147 53.5523 196.125 53.4167C196.107 53.3098 192.87 50.0089 188.931 46.0813C183.617 40.7832 181.713 38.948 181.555 38.9703C181.437 38.9869 176.507 43.8318 170.598 49.7366C161.925 58.4049 159.876 60.5047 159.962 60.6384C160.02 60.7295 160.885 61.2365 161.885 61.7652C162.884 62.2937 164.255 63.0384 164.931 63.4199C165.608 63.8015 167.075 64.7156 168.192 65.4513C169.309 66.1871 170.848 67.2441 171.613 67.8004C172.377 68.3566 173.58 69.2724 174.285 69.8354C174.991 70.3984 175.929 71.1809 176.37 71.5743C176.811 71.9676 177.233 72.2795 177.309 72.2673ZM222.899 67.9057C223.003 67.8896 224.458 66.5119 226.133 64.8441C227.808 63.1764 229.179 61.7378 229.179 61.6473C229.179 61.5568 221.339 53.6669 211.757 44.1142C202.175 34.5615 194.243 26.6839 194.132 26.6084C193.947 26.4834 193.653 26.7478 190.842 29.5734C188.947 31.4779 187.755 32.7549 187.755 32.8806C187.755 33.0109 194.123 39.4338 205.233 50.5102C217.014 62.2551 222.773 67.9254 222.899 67.9057ZM235.357 55.5796C235.457 55.5251 236.358 54.676 237.357 53.6928C238.357 52.7097 239.722 51.3271 240.391 50.6204C241.06 49.9138 241.926 48.9389 242.315 48.4539C242.704 47.9691 243.329 47.082 243.703 46.4827C244.077 45.8834 244.686 44.7696 245.057 44.0078C245.428 43.2459 245.897 42.143 246.1 41.557C246.303 40.9709 246.616 39.916 246.796 39.2127C246.976 38.5095 247.187 37.4785 247.264 36.9218C247.351 36.3033 247.406 34.8732 247.406 33.2456C247.406 31.2933 247.356 30.2258 247.22 29.2497C247.117 28.5171 246.862 27.2944 246.653 26.5325C246.443 25.7707 245.967 24.419 245.594 23.5288C245.221 22.6385 244.577 21.3391 244.163 20.6412C243.749 19.9432 243.04 18.8734 242.589 18.2639C242.127 17.6411 241.059 16.4528 240.15 15.5515C239.261 14.6692 238.103 13.631 237.577 13.2443C237.051 12.8577 236.016 12.1787 235.276 11.7356C234.536 11.2924 233.259 10.6422 232.437 10.2908C231.615 9.93929 230.342 9.47938 229.607 9.26876C228.872 9.05812 227.646 8.78055 226.882 8.65188C225.69 8.45094 225.086 8.41795 222.606 8.41795C220.801 8.41795 219.338 8.47061 218.703 8.55843C218.144 8.63569 217.038 8.86681 216.244 9.07201C215.45 9.27722 214.248 9.66351 213.572 9.93045C212.895 10.1974 211.933 10.618 211.434 10.8652C210.934 11.1123 209.985 11.6458 209.325 12.0507C208.666 12.4555 207.703 13.1189 207.187 13.5249C206.671 13.9309 204.833 15.6651 203.103 17.3787C200.126 20.3271 199.965 20.5061 200.11 20.713C200.194 20.8333 208.117 28.7498 217.718 38.3052C232.157 52.6763 235.206 55.6616 235.357 55.5796Z" fill="white"/>
</svg>
